<svg xmlns="http://www.w3.org/2000/svg" id="Layer_2" data-name="Layer 2" viewBox="0 0 266.31 389.04"><defs><style>      .cls-1 {        fill: #fff;      }      .cls-1, .cls-2, .cls-3 {        fill-rule: evenodd;      }      .cls-4 {        fill: #231f20;      }      .cls-2 {        fill: #09529b;      }      .cls-5, .cls-3 {        fill: #f48120;      }    </style></defs><g id="Layer_1-2" data-name="Layer 1"><polygon class="cls-1" points="0 117.63 133.15 40.56 266.31 117.63 266.31 199.32 266.31 271.77 133.15 348.83 0 271.77 0 117.63"></polygon><path class="cls-2" d="M237.5,239.48l-2.41-2.24c.26-.31.51-.64.74-1l1.68,1.55v1.69ZM203.48,173.12c.92.15,1.56,1.03,1.41,1.95-.15.93-1.02,1.57-1.95,1.42-.92-.15-1.55-1.03-1.41-1.95.15-.92,1.03-1.56,1.95-1.41ZM202.04,181.41c1.74.28,2.93,1.94,2.65,3.67-.28,1.74-1.93,2.93-3.67,2.65-1.73-.28-2.91-1.94-2.64-3.68.28-1.73,1.93-2.93,3.65-2.65ZM207.08,177.15c.93.15,1.56,1.02,1.4,1.95-.14.93-1.02,1.56-1.95,1.41-.92-.14-1.55-1.02-1.4-1.95.15-.93,1.02-1.55,1.94-1.4ZM211.26,183.1c1.74.29,2.93,1.94,2.65,3.67-.28,1.74-1.93,2.93-3.67,2.65-1.73-.28-2.92-1.93-2.63-3.68.28-1.73,1.92-2.93,3.65-2.64ZM198.61,189.57c.93.15,1.56,1.03,1.41,1.95-.15.93-1.03,1.56-1.95,1.41-.92-.15-1.55-1.02-1.4-1.95.15-.92,1.02-1.55,1.94-1.41ZM205.9,189.53c.92.15,1.56,1.03,1.41,1.95-.15.92-1.03,1.56-1.95,1.41-.92-.14-1.56-1.02-1.41-1.95.15-.92,1.03-1.55,1.95-1.41ZM179.63,258.64c.7.11,1.17.77,1.06,1.45-.11.7-.76,1.17-1.46,1.06-.68-.11-1.15-.76-1.04-1.46.11-.68.76-1.15,1.44-1.05ZM183.64,254.17c.96.16,1.62,1.06,1.46,2.01-.16.97-1.06,1.62-2.03,1.46-.95-.15-1.6-1.06-1.44-2.03.16-.94,1.05-1.6,2-1.45ZM184.02,258.78c.54.08.9.58.81,1.12-.08.55-.58.91-1.13.82-.54-.08-.89-.59-.81-1.13.09-.53.58-.89,1.12-.8ZM242.42,221.13c.38.06.63.4.57.77-.07.38-.41.63-.79.57-.37-.06-.61-.41-.55-.79.06-.37.4-.62.77-.56ZM174.19,260.06c2.49,6.15,10.66,5.28,15.83,3.78,7.02-2.03,11.31-8.3,16.55-13.06-.33,2.04-1.66,4.02,1.11,4.46,3.85.62,6.53-2.09,9.2-4.02l12.91-11.99c.95.16,1.76.13,2.49-.07l.47.44v5.01l.35-5.17-.42-.4c.26-.1.52-.22.77-.36l1.48,1.37v8.3s.58-8.57.58-8.57l-1.55-1.45c.24-.17.47-.37.68-.58l2.87,2.64v2.53s.16-2.38.16-2.38l2.1,1.94-.02,8.66.68-8.94-2.7-2.5.15-2.06-1.83-1.7c2.06-3.3,3.17-7.84,6.23-8.33l-1.65-2.51c.54.04,1.98,1.26,2.51,1.3,1.43-2.41,1.82-8.34-2.74-7.46,1.93-3.64,1.33-7.53-.34-9.23,1.32,6,.26,5.93-.25,9.14-.71.59-1.7,1.11-2.36,3.28-.25,1.59-.51,3.18-.77,4.77-1.24-.21-5.69-20.84-10.64-34.97-1.84-5.24-4.95-10.39-8.06-14.71-19.95-27.71-19.78-4.71-25.07,11.52-4.04,12.38-4.34,20.07-.7,28.2l-6.48,4.17c-.18,2.4.37,1.53.12,3.08-.23,1.41-1.6,2.47-2.37,3.29.28.91.43,1.09.2,2.48l-.19,1.2c-.17,1.06-2.33,3.02-3.04,3.78.28.91.43,1.09.2,2.48l-.1.6c-1.45,8.97-10.76,15.72-27.2,28.64,7.39-4.44,14.43-8.47,17.44-8.02-6.33,2.91-10.76,7.1-14.94,11.48,6.42-4.74,12.93-9.76,18.35-10.04Z"></path><polygon class="cls-3" points="133.15 40.56 199.72 79.1 266.3 117.63 266.3 199.32 244.07 213.9 244.07 130.5 188.61 98.41 133.15 66.3 77.7 98.41 22.23 130.5 22.23 194.7 22.23 258.9 77.7 290.99 133.15 323.1 188.61 290.99 244.07 258.9 244.07 230.45 266.3 230.45 266.3 271.77 199.72 310.3 133.15 348.83 66.57 310.3 0 271.77 0 194.7 0 117.63 66.57 79.1 133.15 40.56"></polygon><path class="cls-5" d="M97.07,367.88h2.52v2.9h4.84v1.12h-4.84v11.73c0,1.47.18,2.45.52,2.95.35.5.94.76,1.77.76s1.44-.26,1.88-.78c.45-.51.68-1.26.7-2.24l.84-.02v.33c0,1.45-.36,2.55-1.07,3.29-.71.75-1.78,1.12-3.18,1.12s-2.42-.43-3.05-1.29c-.63-.86-.94-2.27-.94-4.23v-11.62h-1.97v-1.12h1.97v-2.9ZM90.75,377.7v9.64h3.1v1.14h-8.67v-1.14h3.08v-9.35c0-2.35-.33-3.97-.99-4.86-.66-.89-1.78-1.33-3.36-1.33s-2.91.5-3.92,1.51c-1.01,1-1.51,2.33-1.51,3.97v10.05h3.08v1.14h-8.67v-1.14h3.04v-15.38h-3.04v-1.14h5.58v2.75c.6-1.11,1.39-1.95,2.39-2.49,1-.56,2.21-.83,3.64-.83,2.18,0,3.76.59,4.75,1.76.98,1.17,1.48,3.07,1.48,5.69ZM57.86,378.38c-.01.15-.02.32-.03.51,0,.19,0,.47,0,.82,0,2.82.45,4.88,1.35,6.21.9,1.32,2.32,1.98,4.25,1.98,1.6,0,2.93-.44,3.94-1.3,1.02-.87,1.6-2.05,1.74-3.53h1.6c-.21,1.92-.96,3.4-2.26,4.43-1.3,1.04-3.07,1.54-5.31,1.54-2.7,0-4.7-.77-6.04-2.33-1.33-1.56-1.99-3.91-1.99-7.06s.64-5.59,1.92-7.12c1.27-1.52,3.26-2.29,5.98-2.29,2.48,0,4.37.68,5.65,2.04,1.28,1.35,1.95,3.39,2.02,6.09h-12.82ZM57.89,377.21h9.96c0-1.87-.42-3.3-1.27-4.32-.86-1.01-2.04-1.52-3.57-1.52s-2.77.48-3.61,1.43c-.84.96-1.34,2.43-1.51,4.4ZM33.9,370.82h8.6v1.14h-3.08l5.29,13.86,5.05-13.86h-3.15v-1.14h7.53v1.14h-2.75l-6.45,16.95h-1.64l-6.5-16.95h-2.91v-1.14ZM31.02,377.7v9.64h3.1v1.14h-8.67v-1.14h3.08v-9.35c0-2.35-.33-3.97-1-4.86-.66-.89-1.77-1.33-3.35-1.33s-2.91.5-3.91,1.51c-1.01,1-1.51,2.33-1.51,3.97v10.05h3.08v1.14h-8.67v-1.14h3.05v-15.38h-3.05v-1.14h5.59v2.75c.6-1.11,1.39-1.95,2.39-2.49.99-.56,2.21-.83,3.64-.83,2.18,0,3.76.59,4.75,1.76.99,1.17,1.48,3.07,1.48,5.69ZM1.11,363.23h10.32v1.29h-3.83v22.64h3.83v1.31H1.11v-1.31h3.84v-22.64H1.11v-1.29Z"></path><path class="cls-4" d="M262.82,372.54v-1.9h1.6v6.38h-1.6v-.14c0-1.83-.34-3.19-1.02-4.09-.68-.9-1.71-1.34-3.09-1.34-1.08,0-1.95.31-2.6.91-.66.61-.99,1.42-.99,2.43,0,1.63,1.54,2.77,4.61,3.41.72.15,1.28.28,1.68.38,1.72.41,2.96,1,3.73,1.8.77.79,1.15,1.87,1.15,3.24,0,1.65-.57,2.97-1.71,3.95-1.14.98-2.68,1.46-4.6,1.46-1.3,0-2.42-.27-3.37-.81-.95-.54-1.63-1.28-2.03-2.22v2.47h-1.6v-7.18h1.6v.81c0,1.81.46,3.23,1.37,4.26.92,1.03,2.17,1.54,3.75,1.54,1.21,0,2.19-.33,2.93-1,.74-.67,1.1-1.56,1.1-2.68,0-1.78-1.74-3.05-5.21-3.82-.35-.07-.6-.13-.77-.17-1.72-.36-2.97-.94-3.74-1.69-.77-.77-1.16-1.81-1.16-3.15,0-1.53.5-2.77,1.48-3.73.99-.95,2.27-1.43,3.87-1.43,1.01,0,1.91.2,2.7.59.78.39,1.43.96,1.93,1.7M246.99,377.7v9.64h3.1v1.14h-8.66v-1.14h3.08v-9.35c0-2.35-.33-3.97-1-4.86-.66-.89-1.77-1.34-3.35-1.34s-2.91.5-3.91,1.51c-1.01,1-1.51,2.33-1.51,3.97v10.06h3.08v1.14h-8.67v-1.14h3.05v-15.38h-3.05v-1.14h5.58v2.75c.6-1.11,1.39-1.95,2.39-2.49.99-.56,2.21-.83,3.64-.83,2.18,0,3.76.59,4.75,1.76.99,1.17,1.48,3.07,1.48,5.7ZM218.38,370.24c2.9,0,5.05.77,6.45,2.31,1.41,1.54,2.1,3.9,2.1,7.09s-.69,5.57-2.09,7.1c-1.39,1.54-3.55,2.3-6.47,2.3s-5.1-.76-6.48-2.29-2.08-3.89-2.08-7.11.69-5.58,2.09-7.11c1.39-1.53,3.55-2.3,6.48-2.3ZM218.38,371.38c-2.09,0-3.61.67-4.57,1.99-.95,1.33-1.44,3.45-1.44,6.37s.49,4.85,1.45,6.17c.97,1.33,2.49,1.98,4.55,1.98s3.6-.66,4.56-1.98c.95-1.31,1.44-3.4,1.44-6.28s-.49-4.95-1.45-6.27c-.97-1.33-2.47-1.99-4.54-1.99ZM203.72,363.23c.47,0,.86.16,1.19.49.32.33.48.73.48,1.2s-.16.87-.48,1.2c-.33.33-.72.49-1.19.49s-.88-.16-1.21-.49c-.33-.33-.5-.73-.5-1.2s.16-.87.49-1.2c.34-.33.74-.49,1.22-.49ZM199.31,370.82h5.58v16.52h3.15v1.14h-8.73v-1.14h3.04v-15.38h-3.04v-1.14ZM190.36,367.88h2.52v2.9h4.85v1.12h-4.85v11.73c0,1.47.18,2.45.52,2.95.35.5.94.76,1.77.76s1.44-.26,1.88-.78c.45-.51.68-1.26.7-2.24l.84-.02v.33c0,1.45-.36,2.55-1.07,3.3-.71.75-1.78,1.12-3.18,1.12s-2.42-.43-3.05-1.29c-.63-.86-.94-2.27-.94-4.23v-11.62h-1.97v-1.12h1.97v-2.9ZM165.84,370.82h5.59v10.48c0,2.32.32,3.92.98,4.84.66.9,1.76,1.35,3.3,1.35,1.65,0,2.99-.5,3.99-1.49,1.01-1,1.51-2.32,1.51-4v-10.05h-3.08v-1.14h5.62v16.52h3.04v1.14h-5.58v-2.76c-.6,1.11-1.39,1.95-2.39,2.5-.99.55-2.2.83-3.63.83-2.19,0-3.78-.58-4.76-1.75-.98-1.17-1.47-3.07-1.47-5.7v-9.64h-3.1v-1.14ZM156.56,363.23h5.59v24.11h3.15v1.14h-8.73v-1.14h3.05v-22.99h-3.05v-1.12ZM145.79,370.24c2.9,0,5.05.77,6.46,2.31,1.41,1.54,2.1,3.9,2.1,7.09s-.69,5.57-2.09,7.1c-1.39,1.54-3.55,2.3-6.48,2.3s-5.1-.76-6.48-2.29c-1.39-1.52-2.08-3.89-2.08-7.11s.69-5.58,2.09-7.11c1.39-1.53,3.55-2.3,6.47-2.3ZM145.79,371.38c-2.09,0-3.61.67-4.56,1.99-.95,1.33-1.44,3.45-1.44,6.37s.48,4.85,1.46,6.17c.97,1.33,2.48,1.98,4.54,1.98s3.6-.66,4.56-1.98c.96-1.31,1.43-3.4,1.43-6.28s-.48-4.95-1.45-6.27c-.97-1.33-2.48-1.99-4.55-1.99ZM129.79,365.94v-2.71h1.94v8.68h-1.94v-1.19c0-2.22-.42-3.91-1.26-5.07-.84-1.16-2.06-1.74-3.66-1.74-1.31,0-2.38.43-3.19,1.29-.82.86-1.23,2-1.23,3.4,0,1.28.31,2.29.95,3.04.63.75,2.08,1.6,4.33,2.55l.2.09c4.95,2.09,7.43,4.69,7.43,7.81,0,2.01-.68,3.68-2.03,4.99-1.36,1.31-3.05,1.97-5.1,1.97-1.53,0-2.88-.39-4.05-1.19-1.17-.78-2.06-1.9-2.68-3.36v3.98h-1.94v-9.5h1.94v1.11c0,2.21.61,4.02,1.84,5.45,1.23,1.42,2.74,2.13,4.55,2.13,1.41,0,2.57-.46,3.47-1.39.9-.94,1.35-2.15,1.35-3.63,0-2.21-1.98-4.15-5.95-5.82-.72-.3-1.27-.54-1.66-.71-1.91-.82-3.26-1.75-4.07-2.79-.82-1.05-1.22-2.38-1.22-3.98,0-1.94.61-3.53,1.83-4.81,1.22-1.27,2.8-1.9,4.72-1.9,1.25,0,2.33.28,3.24.85.92.55,1.64,1.38,2.15,2.47Z"></path><path class="cls-4" d="M171.84,1.68v12.22h6.79c1.76,0,2.93-.26,3.52-.79.79-.7,1.22-1.93,1.32-3.68h.84v10.77h-.84c-.21-1.51-.43-2.48-.64-2.91-.27-.53-.72-.95-1.34-1.25-.62-.3-1.58-.46-2.86-.46h-6.79v10.2c0,1.37.06,2.2.18,2.49.13.3.33.54.64.71.3.18.88.26,1.73.26h5.22c1.74,0,3-.13,3.79-.37.78-.24,1.54-.72,2.26-1.44.94-.94,1.9-2.36,2.88-4.26h.93l-2.66,7.74h-23.77v-.84h1.09c.73,0,1.42-.18,2.07-.53.49-.24.82-.61.99-1.1.18-.49.26-1.49.26-2.99V5.36c0-1.96-.19-3.16-.59-3.61-.55-.61-1.46-.91-2.74-.91h-1.09v-.84h23.77l.33,6.81h-.88c-.32-1.64-.67-2.77-1.05-3.38-.39-.62-.96-1.08-1.71-1.41-.6-.23-1.68-.34-3.2-.34h-8.45ZM160.63,0l.33,7.27h-.86c-.17-1.28-.4-2.19-.68-2.74-.47-.88-1.09-1.53-1.88-1.94-.78-.42-1.81-.63-3.08-.63h-4.34v23.6c0,1.9.2,3.09.61,3.57.58.64,1.46.96,2.65.96h1.06v.84h-13.12v-.84h1.11c1.32,0,2.25-.4,2.81-1.19.33-.49.5-1.6.5-3.33V1.96h-3.7c-1.44,0-2.46.11-3.07.32-.79.29-1.46.84-2.02,1.66-.56.81-.89,1.93-1,3.33h-.86l.33-7.27h25.22ZM132.58,30.08v.84h-13.21v-.84h1.09c1.28,0,2.2-.37,2.78-1.11.36-.49.54-1.65.54-3.5V5.46c0-1.56-.1-2.6-.3-3.09-.15-.38-.47-.71-.94-.98-.67-.37-1.36-.54-2.09-.54h-1.09v-.84h13.21v.84h-1.11c-1.26,0-2.17.37-2.75,1.11-.38.49-.57,1.66-.57,3.51v20.01c0,1.56.1,2.6.3,3.09.15.38.46.71.95.98.65.37,1.33.54,2.06.54h1.11ZM95.86,30.92l-11.91-26.02v20.65c0,1.9.21,3.09.62,3.57.57.64,1.46.96,2.7.96h1.1v.84h-10.84v-.84h1.11c1.32,0,2.25-.4,2.81-1.19.33-.49.5-1.6.5-3.33V5.36c0-1.37-.15-2.36-.46-2.97-.22-.44-.61-.81-1.19-1.11-.58-.29-1.5-.44-2.78-.44v-.84h8.84l11.12,24.18L108.51,0h8.75v.84h-1.08c-1.34,0-2.28.4-2.84,1.19-.33.49-.5,1.6-.5,3.34v20.2c0,1.9.22,3.09.64,3.57.57.64,1.47.96,2.7.96h1.08v.84h-13.21v-.84h1.11c1.33,0,2.26-.4,2.81-1.19.33-.49.5-1.6.5-3.33V4.9l-11.86,26.02h-.74Z"></path></g></svg>